<svg xmlns="http://www.w3.org/2000/svg" xmlns:xlink="http://www.w3.org/1999/xlink" width="160" height="48" viewBox="0 0 160 48">
  <defs>
    <clipPath id="clip-path">
      <rect id="Rectangle_8" data-name="Rectangle 8" width="158" height="45.226" fill="none"/>
    </clipPath>
    <clipPath id="clip-FH_Logo_A">
      <rect width="160" height="48"/>
    </clipPath>
  </defs>
  <g id="FH_Logo_A" clip-path="url(#clip-FH_Logo_A)">
    <g id="Group_10747" data-name="Group 10747" transform="translate(1 1)">
      <path id="Path_1" data-name="Path 1" d="M153.187,0V.31h.9V2.626h.361V.31h.9V0Z" transform="translate(-0.305)" fill="#cc171b"/>
      <g id="Group_10746" data-name="Group 10746" transform="translate(0 0)">
        <g id="Group_10745" data-name="Group 10745" clip-path="url(#clip-path)">
          <path id="Path_2" data-name="Path 2" d="M155.705,2.622V0h.542l.643,1.856c.06.173.1.3.131.388.031-.1.079-.236.145-.42L157.816,0h.484V2.622h-.347V.428l-.789,2.194h-.325L156.051.39V2.622Z" transform="translate(-0.3 0)" fill="#cc171b"/>
          <path id="Path_3" data-name="Path 3" d="M6.592,11.438V7.057h9.125a16.434,16.434,0,0,0,.3-2.838,11.888,11.888,0,0,0-.075-1.293q-.075-.681-.223-1.472H0V27.166a20.594,20.594,0,0,0,3.315.323,20.984,20.984,0,0,0,3.278-.323V17.076H13.78a14.2,14.2,0,0,0,.335-2.838,14.059,14.059,0,0,0-.335-2.8Z" transform="translate(0 -0.002)" fill="#cc171b"/>
          <path id="Path_4" data-name="Path 4" d="M73.164,1.023q-1.006,0-2.067.054T69.03,1.2q-1.006.072-1.862.162t-1.415.162v25.64q1.675.216,3.407.377t3.594.162q7.3,0,11.025-3.179t3.725-10q0-6.715-3.65-10.108T73.164,1.023m6.909,17.2A5.877,5.877,0,0,1,78.6,20.558a5.161,5.161,0,0,1-2.216,1.2,10.633,10.633,0,0,1-2.738.341H72.94a4.4,4.4,0,0,1-.6-.036V6.7c.074,0,.224-.006.447-.018s.583-.018,1.08-.018a8.712,8.712,0,0,1,2.57.377,5.253,5.253,0,0,1,2.141,1.257,6.285,6.285,0,0,1,1.471,2.387,10.963,10.963,0,0,1,.559,3.771,11.123,11.123,0,0,1-.54,3.771" transform="translate(-0.127 -0.002)" fill="#cc171b"/>
          <path id="Path_5" data-name="Path 5" d="M105.909,1.239q-.671,0-1.471.072t-1.807.216v9.516H96.039V1.526q-.969-.144-1.807-.216t-1.508-.072q-.633,0-1.452.072t-1.825.216v25.64a20.594,20.594,0,0,0,3.315.323,20.984,20.984,0,0,0,3.278-.323V16.68h6.592V27.166a20.594,20.594,0,0,0,3.315.323,20.984,20.984,0,0,0,3.278-.323V1.526q-.969-.144-1.807-.216t-1.508-.072" transform="translate(-0.172 -0.002)" fill="#cc171b"/>
          <path id="Path_6" data-name="Path 6" d="M128.895,1.275c-.422,0-.889.018-1.4.054s-1.136.1-1.881.2V15.46q0,1.8-.13,3.052a6.1,6.1,0,0,1-.522,2.047,2.353,2.353,0,0,1-1.118,1.131,4.442,4.442,0,0,1-1.88.341,4.322,4.322,0,0,1-1.863-.341,2.365,2.365,0,0,1-1.1-1.131,6.269,6.269,0,0,1-.541-2.047,26.611,26.611,0,0,1-.149-3.052V1.527q-1.081-.144-1.843-.2t-1.4-.054q-.708,0-1.491.054c-.52.036-1.142.1-1.861.2V16.213a22.267,22.267,0,0,0,.466,4.777A8.914,8.914,0,0,0,113.81,24.6a7.257,7.257,0,0,0,3.147,2.281,16.271,16.271,0,0,0,10.02,0,7.261,7.261,0,0,0,3.148-2.281,8.956,8.956,0,0,0,1.62-3.608,22.4,22.4,0,0,0,.465-4.777V1.527c-.721-.1-1.34-.162-1.863-.2s-1-.054-1.451-.054" transform="translate(-0.215 -0.002)" fill="#cc171b"/>
          <path id="Path_7" data-name="Path 7" d="M153.184,17.254A6.191,6.191,0,0,0,152.2,15.4a5.948,5.948,0,0,0-1.415-1.293,8.619,8.619,0,0,0-1.658-.843,5.907,5.907,0,0,0,1.974-2.137,6.119,6.119,0,0,0,.782-3.07,6.563,6.563,0,0,0-.8-3.394A6.058,6.058,0,0,0,148.9,2.513a9.9,9.9,0,0,0-3.222-1.15,21.889,21.889,0,0,0-3.966-.34q-2.235,0-3.911.144t-3.091.358V27.2q1.862.216,3.464.359t3.612.144a28.653,28.653,0,0,0,4.693-.359,11.059,11.059,0,0,0,3.725-1.257,6.562,6.562,0,0,0,2.458-2.442,7.724,7.724,0,0,0,.893-3.913,7.594,7.594,0,0,0-.372-2.478M141.155,6.014a3.457,3.457,0,0,1,.54-.036h.54a6.487,6.487,0,0,1,1.155.108,3.243,3.243,0,0,1,1.08.394,2.376,2.376,0,0,1,.8.79,2.322,2.322,0,0,1,.316,1.257,2.47,2.47,0,0,1-.893,2.173,4.286,4.286,0,0,1-2.5.629h-1.043Zm5.382,14.956a2.592,2.592,0,0,1-.95.934,4.3,4.3,0,0,1-1.321.484,7.381,7.381,0,0,1-1.434.144q-.633,0-1.024-.018t-.652-.054V16.428h1.527a6.127,6.127,0,0,1,3.035.664,2.506,2.506,0,0,1,1.174,2.388,2.869,2.869,0,0,1-.354,1.49" transform="translate(-0.26 -0.002)" fill="#cc171b"/>
          <path id="Path_8" data-name="Path 8" d="M36.325,4.866a9.937,9.937,0,0,0-3.631-2.819,12.352,12.352,0,0,0-5.252-1.024,12.472,12.472,0,0,0-5.27,1.024,9.881,9.881,0,0,0-3.65,2.819A11.853,11.853,0,0,0,16.4,9.121a19.676,19.676,0,0,0-.69,5.332,19.283,19.283,0,0,0,.69,5.3,11.69,11.69,0,0,0,2.123,4.2,9.633,9.633,0,0,0,3.65,2.765,12.32,12.32,0,0,0,4.567.973c-.007-3.76-.013-4.109-.013-4.434A3.7,3.7,0,0,0,25.106,20.2a4.415,4.415,0,0,1-1.7-2.919c-.5-2.137.911-7.812,1.4-9.636.1-.355.19-.351.2.009,0,0,.09,5.483.178,7.31,0,.1.025.359.3.359.243,0,.3-.257.312-.359.282-1.823.738-7.311.738-7.311.044-.359.19-.359.2,0,0,0,.158,5.492.438,7.342.021.144.051.326.305.326h.033c.255,0,.283-.183.305-.326.28-1.849.438-7.342.438-7.342.011-.36.158-.361.2,0,0,0,.454,5.487.738,7.311.016.1.07.359.312.359.274,0,.294-.258.3-.359.087-1.826.178-7.31.178-7.31.015-.36.109-.364.2-.009.492,1.824,1.9,7.5,1.4,9.636A4.415,4.415,0,0,1,29.889,20.2a3.7,3.7,0,0,0-1.62,3.055c0,.325-.006.675-.013,4.429a12.116,12.116,0,0,0,4.438-.968,9.684,9.684,0,0,0,3.631-2.765,11.722,11.722,0,0,0,2.123-4.2,19.322,19.322,0,0,0,.689-5.3,19.716,19.716,0,0,0-.689-5.332,11.885,11.885,0,0,0-2.123-4.256" transform="translate(-0.03 -0.002)" fill="#cc171b"/>
          <path id="Path_9" data-name="Path 9" d="M60.991,4.866A9.937,9.937,0,0,0,57.36,2.047a12.352,12.352,0,0,0-5.252-1.024,12.472,12.472,0,0,0-5.27,1.024,9.881,9.881,0,0,0-3.65,2.819,11.853,11.853,0,0,0-2.123,4.256,19.676,19.676,0,0,0-.69,5.332,19.283,19.283,0,0,0,.69,5.3,11.69,11.69,0,0,0,2.123,4.2,9.633,9.633,0,0,0,3.65,2.765,12.028,12.028,0,0,0,4.136.948l.248-6.039c-2.134-.65-3.744-3.538-3.744-7,0-3.943,2.084-7.14,4.655-7.14s4.655,3.2,4.655,7.14c0,3.465-1.609,6.354-3.744,7l.248,6.035a11.845,11.845,0,0,0,4.068-.944,9.684,9.684,0,0,0,3.631-2.765,11.722,11.722,0,0,0,2.123-4.2,19.322,19.322,0,0,0,.689-5.3,19.716,19.716,0,0,0-.689-5.332,11.885,11.885,0,0,0-2.123-4.256" transform="translate(-0.078 -0.002)" fill="#cc171b"/>
          <path id="Path_10" data-name="Path 10" d="M.272,39.935c0-3.151,2.462-5.356,5.748-5.356s5.733,2.2,5.733,5.356S9.3,45.292,6.02,45.292.272,43.088.272,39.935m8.663,0a2.837,2.837,0,0,0-2.915-3,3,3,0,0,0,0,5.993,2.846,2.846,0,0,0,2.915-3" transform="translate(-0.001 -0.066)" fill="#cc171b"/>
          <path id="Path_11" data-name="Path 11" d="M19.164,45.106l-1.8-3.478H15.945v3.478H13.174V34.751h5.379A3.4,3.4,0,0,1,22.288,38.2,3.126,3.126,0,0,1,20.148,41.3l2.19,3.8Zm.306-6.925c0-.715-.6-1.1-1.336-1.1h-2.19V39.3h2.19c.741,0,1.336-.387,1.336-1.118" transform="translate(-0.025 -0.067)" fill="#cc171b"/>
          <path id="Path_12" data-name="Path 12" d="M23.836,45.106V34.751h4.508c3.382,0,5.815,1.954,5.815,5.169s-2.432,5.186-5.8,5.186Zm7.489-5.186a2.7,2.7,0,0,0-2.963-2.843H26.606v5.7h1.739a2.8,2.8,0,0,0,2.98-2.856" transform="translate(-0.046 -0.067)" fill="#cc171b"/>
          <path id="Path_13" data-name="Path 13" d="M35.562,45.106V34.751h7.874v2.328h-5.1v1.615h4.992v2.33H38.331v1.755h5.1v2.329Z" transform="translate(-0.069 -0.067)" fill="#cc171b"/>
          <path id="Path_14" data-name="Path 14" d="M51.051,45.106l-1.8-3.478H47.831v3.478h-2.77V34.751H50.44A3.4,3.4,0,0,1,54.175,38.2,3.127,3.127,0,0,1,52.033,41.3l2.19,3.8Zm.306-6.925c0-.715-.6-1.1-1.337-1.1h-2.19V39.3h2.19c.741,0,1.337-.387,1.337-1.118" transform="translate(-0.087 -0.067)" fill="#cc171b"/>
          <path id="Path_15" data-name="Path 15" d="M55.4,43.833a1.518,1.518,0,0,1,1.531-1.444,1.452,1.452,0,1,1,0,2.9A1.52,1.52,0,0,1,55.4,43.833" transform="translate(-0.107 -0.081)" fill="#cc171b"/>
          <path id="Path_16" data-name="Path 16" d="M64.206,45.106V34.751h7.876v2.328H66.975v1.615h4.992v2.33H66.975v1.755h5.106v2.329Z" transform="translate(-0.124 -0.067)" fill="#cc171b"/>
          <path id="Path_17" data-name="Path 17" d="M81,45.106l-.532-1.49H76.232l-.532,1.49H72.561L76.6,34.751h3.5l4.041,10.355Zm-2.641-7.717-1.369,3.9H79.71Z" transform="translate(-0.14 -0.067)" fill="#cc171b"/>
          <path id="Path_18" data-name="Path 18" d="M86.344,45.106V37.078h-3.01V34.751h8.777v2.328h-3v8.028Z" transform="translate(-0.161 -0.067)" fill="#cc171b"/>
          <path id="Path_19" data-name="Path 19" d="M91.544,43.833a1.518,1.518,0,0,1,1.531-1.444,1.452,1.452,0,1,1,0,2.9,1.52,1.52,0,0,1-1.531-1.458" transform="translate(-0.176 -0.081)" fill="#cc171b"/>
          <path id="Path_20" data-name="Path 20" d="M100.35,45.106V34.751h7.876v2.328H103.12v1.615h4.992v2.33H103.12v1.755h5.106v2.329Z" transform="translate(-0.193 -0.067)" fill="#cc171b"/>
          <path id="Path_21" data-name="Path 21" d="M117.16,45.106l-4.541-5.993v5.993h-2.77V34.751H112.7l4.346,5.7v-5.7h2.787V45.106Z" transform="translate(-0.212 -0.067)" fill="#cc171b"/>
          <path id="Path_22" data-name="Path 22" d="M120.866,44.36l1.159-2.033a2.461,2.461,0,0,0,1.546.6A1.328,1.328,0,0,0,125,41.52V34.75h2.77v6.8c0,2.562-1.61,3.742-3.961,3.742a4.47,4.47,0,0,1-2.945-.931" transform="translate(-0.233 -0.067)" fill="#cc171b"/>
          <path id="Path_23" data-name="Path 23" d="M129.171,39.935c0-3.151,2.464-5.356,5.749-5.356s5.733,2.2,5.733,5.356-2.447,5.358-5.733,5.358-5.749-2.2-5.749-5.358m8.663,0a2.924,2.924,0,1,0-2.914,3,2.837,2.837,0,0,0,2.914-3" transform="translate(-0.249 -0.066)" fill="#cc171b"/>
          <path id="Path_24" data-name="Path 24" d="M144.357,45.106V40.929l-4.075-6.178h3.126l2.334,3.818,2.3-3.818h3.139l-4.058,6.178v4.177Z" transform="translate(-0.27 -0.067)" fill="#cc171b"/>
          <path id="Path_25" data-name="Path 25" d="M150.218,43.833a1.518,1.518,0,0,1,1.531-1.444,1.452,1.452,0,1,1,0,2.9,1.52,1.52,0,0,1-1.531-1.458" transform="translate(-0.289 -0.081)" fill="#cc171b"/>
        </g>
      </g>
    </g>
  </g>
</svg>
